<?xml version="1.0" standalone="no"?>
<!DOCTYPE svg PUBLIC "-//W3C//DTD SVG 20010904//EN"
 "http://www.w3.org/TR/2001/REC-SVG-20010904/DTD/svg10.dtd">
<svg version="1.0" xmlns="http://www.w3.org/2000/svg"
 width="700.000000pt" height="700.000000pt" viewBox="0 0 700.000000 700.000000"
 preserveAspectRatio="xMidYMid meet">
<metadata>
Created by potrace 1.11, written by Peter Selinger 2001-2013
</metadata>
<g transform="translate(0.000000,700.000000) scale(0.100000,-0.100000)"
fill="#000000" stroke="none">
<path d="M4225 6763 c-104 -23 -295 -149 -445 -295 -179 -173 -331 -382 -468
-644 -74 -138 -74 -139 -120 -154 -50 -16 -72 -50 -33 -50 24 0 28 -15 6 -24
-8 -3 -15 -17 -15 -31 0 -16 6 -25 15 -25 17 0 19 -11 7 -25 -5 -6 -21 -41
-37 -80 -16 -38 -29 -71 -29 -72 -1 -1 -17 -5 -36 -8 -60 -10 -137 -54 -183
-105 -50 -56 -108 -160 -132 -240 -26 -87 -29 -232 -5 -317 l19 -71 -35 -98
c-32 -92 -105 -264 -122 -291 -5 -9 -25 -1 -70 27 -49 31 -245 175 -317 232
-5 5 -50 40 -100 80 -49 39 -92 74 -95 77 -13 16 -265 235 -335 293 -304 248
-461 296 -526 161 -24 -49 -30 -160 -16 -257 17 -110 113 -369 203 -549 109
-216 353 -635 426 -728 15 -20 28 -40 28 -43 0 -8 147 -215 172 -243 l20 -22
-46 -61 c-56 -75 -110 -184 -132 -265 -9 -35 -17 -109 -18 -175 -1 -64 -5
-121 -9 -128 -24 -38 -39 -316 -23 -429 20 -136 52 -266 86 -348 46 -107 82
-177 111 -209 25 -30 33 -46 30 -70 -7 -69 -41 -213 -60 -252 -48 -98 -25
-155 100 -246 33 -24 37 -34 52 -112 18 -90 78 -243 133 -336 62 -106 142
-166 235 -177 109 -13 199 60 263 212 27 66 66 205 66 239 0 2 23 12 50 21 71
24 86 50 74 126 -6 33 -9 61 -7 63 2 1 45 -5 96 -15 125 -25 281 -48 357 -53
34 -3 64 -7 66 -9 3 -2 0 -16 -6 -31 -39 -103 -4 -167 111 -203 l58 -18 41
-90 c120 -264 212 -395 312 -446 61 -31 152 -24 210 17 93 64 161 211 213 458
14 66 26 120 27 121 2 0 33 16 70 34 38 18 73 42 80 54 7 13 11 53 9 97 -3 87
-4 240 -2 288 1 26 15 47 72 105 87 89 173 215 238 350 89 183 109 249 136
445 19 131 19 174 1 265 -8 40 -17 110 -21 157 -11 152 -34 251 -94 397 l-41
98 25 35 c13 19 108 143 211 275 103 132 201 258 218 280 17 22 33 42 36 45
22 21 207 262 292 380 188 261 268 401 318 549 56 165 37 266 -58 312 -60 30
-131 21 -256 -31 -230 -96 -440 -221 -711 -424 -77 -58 -365 -284 -375 -296
-3 -3 -37 -31 -77 -63 l-72 -57 -26 84 c-29 94 -50 209 -75 396 -6 47 -13 99
-15 115 -20 145 -25 201 -40 445 -9 133 -6 766 4 795 20 64 45 113 100 195 88
131 117 233 109 387 -9 170 -82 237 -223 206z"/>
</g>
</svg>
